# xmcd
#
# Track frame offsets:
# 183
# 11243
# 23375
# 36483
# 51108
# 64825
# 78193
# 91995
# 105183
# 117268
# 130413
# 145135
#
# Disc length: 2118 seconds
#
#
# Revision: 1
# Processed by: cddbd v1.5.2PL0 Copyright (c) Steve Scherf et al.
# Submitted via: FreeRIP 2.60 
#
DISCID=9508440c
DTITLE=The Inkspots - The Inkspots
DYEAR=1900
DGENRE=Blues
TTITLE0=Yes Suh
TTITLE1=Swing High Swing Low
TTITLE2=Keep Away From My Doorsteps
TTITLE3=Oh Red
TTITLE4=When The Sun Goes Down
TTITLE5=That Cat Is High
TTITLE6=Christopher Columbus
TTITLE7=Stompin' At The Savoy
TTITLE8=Don't Let Old Age Creep Up On You
TTITLE9=With Plenty Of Money And You
TTITLE10=My Prayer
TTITLE11=Thoughtless
EXTD=
EXTT0=
EXTT1=
EXTT2=
EXTT3=
EXTT4=
EXTT5=
EXTT6=
EXTT7=
EXTT8=
EXTT9=
EXTT10=
EXTT11=
PLAYORDER=
